<svg xmlns="http://www.w3.org/2000/svg" height="208.355" width="178.285"><g fill="#a57f53"><path d="M39.084 3.766C27.06.042 13.868 9.873 7.57 20.992c-5.991 10.554-6.141 18.536-.45 23.707 4.451 4.053 9.316 1.865 11.816.2 3.96-2.634 6.563-6.426 9.32-10.444.907-1.324 1.816-2.654 2.779-3.944 2.421-3.25 6.2-7.68 11.024-8.606a6.8 6.8 0 014.947.52 48.653 48.653 0 015.584-3.109c.184-7.334-6.806-13.482-13.506-15.55z"/><path d="M39.042 92.714l.006.006a8.841 8.841 0 005.5-.329 6.387 6.387 0 003.372-3.914 11.711 11.711 0 01-4.606-3.279 6.2 6.2 0 01-1.33-5.815c1.214-3.7 6.22-5.3 11.387-3.608s8.274 5.919 7.063 9.629v.006a6.2 6.2 0 01-4.5 3.909 10.486 10.486 0 01-2.815.364 13.425 13.425 0 01-2.006-.328 10.453 10.453 0 008.548 9.8c.376.082.788.1 1.181.151a1.432 1.432 0 011.607-.179c.136.082.161.242.26.355.621.015 1.255-.01 1.895-.058a1.369 1.369 0 011.388-.379l.453.134c5.351-.9 10.8-3.875 13.365-8.8a1.493 1.493 0 012.646 1.385 20.213 20.213 0 01-9.986 8.788c7.541 1.352 20.046 2.277 28.584-3.98 6.306-4.616 9.48-12.5 9.439-23.405 0-25.463-2.63-50.664-34.031-54.758-31.912-4.2-50.256 28.795-54.621 41.845-3.686 11 .207 19.055 5.893 23.738a22.3 22.3 0 011.251-11.374 1.494 1.494 0 012.784 1.083c-2.185 5.624-2.2 14.964 4.6 18.132a13.246 13.246 0 002.644.876c.004.011.017.005.029.005zm45.8-30.722a10.86 10.86 0 016.258 14l-2.791-1.07a7.859 7.859 0 10-14.683-5.609l-2.791-1.07a10.864 10.864 0 0114.008-6.249zm-51.329-8l-2.791-1.07a10.786 10.786 0 015.706-6.028 10.656 10.656 0 018.3-.226 10.864 10.864 0 016.261 14l-2.791-1.07a7.858 7.858 0 10-14.682-5.609zM124.69 63.022c1.1 3.93.589 8.058.1 12.042-.161 1.317-.321 2.62-.418 3.889-.483 6.507.864 11.548 4.248 15.861 2.765 3.511 6.083 4.56 10.132 3.182 4.3-1.461 6.576-5.582 8.545-9.676 6.1-12.748 3.332-31.463-6.042-40.858-4.1-4.114-11.925-7.145-17.295-6.617a22.678 22.678 0 00-8.2 1.975 18.485 18.485 0 00-2.552 1.639c-.66.48-1.379.912-2.1 1.337a69.23 69.23 0 011.268 6.408c5.641-.149 10.385 3.881 12.314 10.818z"/></g><path d="M58.366 125.385a5.664 5.664 0 10-5.671-5.664 5.671 5.671 0 005.671 5.664z" fill="none" stroke="#3e4147" stroke-miterlimit="10" stroke-width="2.992"/><path d="M68.852 102.893a63.788 63.788 0 01-2.407-.6 22.108 22.108 0 01-2.7.214 36.131 36.131 0 005.107.386zM60.81 180.763a45.893 45.893 0 01-18.065-17.426 43.315 43.315 0 01-3.192 8.673 110.153 110.153 0 00-5.63 14.552 3.7 3.7 0 001.674 4.739c5.275 3.582 17.978 2.855 22.2-.311.593-2.321 1.418-5 2.354-8.028.204-.674.441-1.49.659-2.199zM143.146 155.246a43.051 43.051 0 015.1 11.052 31.894 31.894 0 011.221 6.979c21.214-11.132 25.192-36.116 25.765-48.886-4.405 9.791-14.294 26.041-32.086 30.855z" fill="#a57f53"/><path d="M55.119 86.441a3.443 3.443 0 002.473-1.954c.669-2.058-1.69-4.739-5.15-5.87a10.367 10.367 0 00-3.164-.522c-2.2 0-4 .81-4.458 2.222a3.43 3.43 0 00.837 3.031 9.841 9.841 0 009.463 3.093z" fill="#f7c9a1"/><path d="M121.034 136.614c-3.014-2.482-5.616-4.615-7.632-6.665a227.011 227.011 0 00-4.543-4.451c-4.484-4.31-8.785-8.484-12.734-14.551a100.993 100.993 0 01-29.63 6.2 8.406 8.406 0 01.522 2.581 8.653 8.653 0 11-17.306 0 8.565 8.565 0 01.741-3.455 50.557 50.557 0 01-7.535-1.829c-2.6 5.829-5.012 16.559-3.623 28.442 1.29 11.008 6.344 25.779 22.406 34.937 2.634-8.783 5.48-19.614 5.988-31.563a1.5 1.5 0 011.492-1.433.177.177 0 01.061.007 1.488 1.488 0 011.431 1.549c-.628 14.737-4.7 27.877-7.674 37.47-1.756 5.658-3.141 10.129-3.141 12.728 0 1.756 1.937 3.641 5.177 5.047 6.529 2.812 16.609 2.99 21.537-1.659 6.648-6.254 14.5-41.05 16.969-53.928a1.514 1.514 0 011.748-1.187 1.5 1.5 0 011.188 1.749c-.283 1.47-5.459 28.2-11.765 44.462 2.491-3.947 7.634-7.461 15-10.2-5.182-10.135 4.979-28.315 5.438-29.124a1.493 1.493 0 012.6 1.468c-.109.192-10.876 19.455-4.6 27.519a1.5 1.5 0 01.25 1.351 1.485 1.485 0 01-.953.981c-9.635 3.257-15.6 7.817-16.376 12.515-.394 2.386.684 4.69 3.035 6.487 5 3.827 15.491 5.178 27.67-.377 11.655-5.315 23.519-17.549 18.594-34.549-3.985-13.813-15.269-23.077-24.335-30.522z" fill="#a57f53"/><path d="M58.74 101.975a13.091 13.091 0 01-9.181-7.316l-2.852 8.851a1.491 1.491 0 01-1.419 1.035 1.514 1.514 0 01-.456-.075 1.493 1.493 0 01-.964-1.879l2.569-7.976c-.247.14-.406.383-.669.5a10.742 10.742 0 01-4.4.9 13.609 13.609 0 01-1.975-.235 9.077 9.077 0 004.2 11.372c3.861 2.02 9.904 1.662 15.147-5.177z" fill="#f3783c"/><path d="M85.176 104.483a102.688 102.688 0 01-15.674 1.413 29.171 29.171 0 01-9.2-1.1c-3.851 4.515-8.252 6.436-12.259 6.436a12.532 12.532 0 01-2.981-.366 7.047 7.047 0 00-.729.894 49.027 49.027 0 007.979 1.8 8.613 8.613 0 016.052-2.493 8.515 8.515 0 016.554 3.188 96.817 96.817 0 0029.609-5.927 65.391 65.391 0 01-2.492-4.741 40.982 40.982 0 01-6.867.86z" fill="#e5e6e6"/><path d="M43.66 49.451A7.874 7.874 0 0148.196 59.6l2.791 1.07a10.864 10.864 0 00-6.261-14 10.656 10.656 0 00-8.3.226 10.786 10.786 0 00-5.706 6.028l2.791 1.07a7.85 7.85 0 0110.146-4.54zM83.774 64.778a7.873 7.873 0 014.536 10.149l2.791 1.07a10.848 10.848 0 00-20.265-7.749l2.791 1.07a7.882 7.882 0 0110.147-4.54z" fill="#3e4147"/><path d="M178.155 116.326a1.5 1.5 0 00-1.344-1.357 1.524 1.524 0 00-1.578 1.069c-.088.312-9.3 30.755-33.817 36.653-5.487-7.645-12.672-13.613-18.484-18.391-2.949-2.421-5.493-4.512-7.4-6.453-1.56-1.584-3.1-3.058-4.6-4.505-6.037-5.8-11.287-10.906-15.969-20.572a26.531 26.531 0 007.843-3.78c7.125-5.211 10.715-13.907 10.667-25.825a163.652 163.652 0 00-.729-17.991c4.833 0 7.866 4.3 9.078 8.644.936 3.36.466 7.187.01 10.883-.168 1.365-.332 2.715-.432 4.032-.545 7.29 1 12.988 4.876 17.926 2.555 3.25 5.688 4.9 9.207 4.9a13.216 13.216 0 004.233-.741c5.4-1.837 8.134-6.747 10.273-11.212 6.6-13.784 3.566-34.048-6.618-44.259-4.721-4.725-13.345-7.968-19.657-7.481a25.493 25.493 0 00-9.258 2.263 21.223 21.223 0 00-2.993 1.906c-.395.287-.762.482-1.141.737-3.981-13.112-13-24.651-33.48-27.324a42.857 42.857 0 00-21.37 2.623C54.928 9.802 47.513 3.237 39.965.91 26.471-3.235 11.857 7.391 4.976 19.51c-8.433 14.867-4.578 23.1.14 27.389a11.231 11.231 0 007.66 3.052 14.18 14.18 0 007.817-2.579c4.443-2.949 7.335-7.166 10.129-11.239.885-1.29 1.772-2.586 2.713-3.848 3.332-4.471 6.339-6.9 9.191-7.454a11.2 11.2 0 011.142-.177c-13.679 10.3-21.971 26.312-24.763 34.65-4.876 14.557 2.361 24.82 10.184 29.345a12.382 12.382 0 005.915 5.883c.469.219.941.323 1.413.493a12.071 12.071 0 005.614 14.7c-3.853 5.461-7.487 19.021-5.8 33.492a55.048 55.048 0 004.012 15.247c-.051 4.646-1.424 7.721-3.508 12.3a112.4 112.4 0 00-5.75 14.867 6.643 6.643 0 002.836 8.133c2.9 1.961 7.66 2.921 12.443 2.921a28.516 28.516 0 0010.688-1.9 15.01 15.01 0 00-.175 1.775c0 3.079 2.476 5.843 6.978 7.783a29.2 29.2 0 0011.309 2.243c5.112 0 10.146-1.344 13.454-4.458 1.573-1.48 3.146-4.2 4.673-7.633-.044.194-.128.382-.161.577-.571 3.477.947 6.885 4.166 9.347 3.073 2.352 7.888 3.922 13.761 3.922a41.1 41.1 0 0016.969-3.956c10.267-4.677 20.648-14.339 21.438-27.776 32.24-15.514 28.731-59.834 28.691-60.283zm-83.626-8a96.817 96.817 0 01-29.609 5.927 8.515 8.515 0 00-6.554-3.188 8.613 8.613 0 00-6.052 2.493 49.027 49.027 0 01-7.979-1.8 7.047 7.047 0 01.729-.894 12.532 12.532 0 002.981.366c4.007 0 8.408-1.921 12.259-6.436a29.171 29.171 0 009.2 1.1 102.688 102.688 0 0015.674-1.413l-.007-.036a40.982 40.982 0 006.867-.86 66.64 66.64 0 002.491 4.743zm-36.163 5.729a5.664 5.664 0 11-5.671 5.664 5.671 5.671 0 015.671-5.662zm8.079-11.766c.624.172 1.419.374 2.407.6a36.131 36.131 0 01-5.111-.388 22.108 22.108 0 002.704-.21zm46.761-57.832a18.485 18.485 0 012.552-1.639 22.678 22.678 0 018.2-1.975c5.37-.528 13.194 2.5 17.295 6.617 9.374 9.4 12.139 28.11 6.042 40.858-1.969 4.094-4.244 8.215-8.545 9.676-4.049 1.378-7.367.329-10.132-3.182-3.384-4.313-4.731-9.354-4.248-15.861.1-1.269.257-2.572.418-3.889.49-3.984 1-8.112-.1-12.042-1.929-6.937-6.673-10.967-12.312-10.818a68.902 68.902 0 00-1.268-6.408c.719-.423 1.438-.855 2.098-1.335zM42.06 21.902c-4.824.926-8.6 5.356-11.024 8.606-.963 1.29-1.872 2.62-2.779 3.944-2.758 4.018-5.36 7.81-9.32 10.444-2.5 1.666-7.365 3.854-11.816-.2-5.69-5.171-5.541-13.153.45-23.707C13.871 9.87 27.06.039 39.085 3.763c6.7 2.068 13.691 8.216 13.508 15.549a48.653 48.653 0 00-5.584 3.109 6.8 6.8 0 00-4.95-.517zm-10.3 51.8a1.494 1.494 0 00-2.784-1.083 22.3 22.3 0 00-1.251 11.374c-5.686-4.683-9.578-12.737-5.893-23.738 4.365-13.05 22.709-46.046 54.621-41.845 31.4 4.094 34.031 29.295 34.031 54.758.041 10.91-3.134 18.789-9.439 23.405-8.538 6.257-21.043 5.332-28.584 3.98a20.213 20.213 0 009.986-8.788 1.493 1.493 0 00-2.646-1.385c-2.566 4.927-8.015 7.9-13.365 8.8a32.8 32.8 0 01-.453-.134 1.369 1.369 0 00-1.388.379c-.64.048-1.273.073-1.895.058-.1-.113-.124-.273-.26-.355a1.432 1.432 0 00-1.607.179c-.393-.054-.8-.069-1.181-.151a10.453 10.453 0 01-8.548-9.8 13.425 13.425 0 002.006.328 10.486 10.486 0 002.815-.364 6.2 6.2 0 004.5-3.909v-.006c1.211-3.71-1.893-7.942-7.063-9.629s-10.173-.1-11.387 3.608a6.2 6.2 0 001.33 5.815 11.711 11.711 0 004.606 3.279 6.387 6.387 0 01-3.372 3.914 8.841 8.841 0 01-5.5.329l-.006-.006c-.012-.006-.024 0-.038 0a13.246 13.246 0 01-2.644-.876c-6.794-3.169-6.776-12.509-4.592-18.133zm18.21 12.474a9.166 9.166 0 01-4.313-2.832 3.43 3.43 0 01-.837-3.031c.46-1.412 2.256-2.222 4.458-2.222a10.367 10.367 0 013.164.522c3.46 1.131 5.819 3.812 5.15 5.87a3.443 3.443 0 01-2.473 1.954 9.164 9.164 0 01-5.15-.257zm-10.574 9.6a13.609 13.609 0 001.975.235 10.742 10.742 0 004.4-.9c.263-.118.422-.361.669-.5l-2.569 7.976a1.493 1.493 0 00.964 1.879 1.514 1.514 0 00.456.075 1.491 1.491 0 001.419-1.035l2.852-8.851a13.091 13.091 0 009.181 7.316c-5.243 6.841-11.286 7.2-15.145 5.176a9.077 9.077 0 01-4.203-11.368zm-3.8 95.522a3.7 3.7 0 01-1.674-4.739 110.153 110.153 0 015.63-14.552 43.315 43.315 0 003.192-8.673 45.893 45.893 0 0018.065 17.426c-.218.709-.455 1.525-.664 2.2-.937 3.023-1.762 5.707-2.354 8.028-4.217 3.168-16.919 3.895-22.195.313zm91.185 10.382c-12.179 5.555-22.675 4.2-27.67.377-2.352-1.8-3.429-4.1-3.035-6.487.772-4.7 6.741-9.258 16.376-12.515a1.485 1.485 0 00.953-.981 1.5 1.5 0 00-.25-1.351c-6.278-8.064 4.488-27.327 4.6-27.519a1.493 1.493 0 00-2.6-1.468c-.459.809-10.619 18.989-5.437 29.124-7.371 2.734-12.514 6.248-15 10.2 6.306-16.261 11.481-42.992 11.765-44.462a1.5 1.5 0 00-1.187-1.749 1.514 1.514 0 00-1.748 1.187c-2.466 12.878-10.32 47.674-16.969 53.928-4.928 4.649-15.008 4.471-21.537 1.659-3.24-1.406-5.177-3.291-5.177-5.047 0-2.6 1.385-7.07 3.141-12.728 2.973-9.593 7.046-22.733 7.674-37.47a1.488 1.488 0 00-1.431-1.549.177.177 0 00-.061-.007 1.5 1.5 0 00-1.492 1.433c-.508 11.949-3.354 22.78-5.988 31.563-16.062-9.158-21.116-23.929-22.406-34.937-1.389-11.883 1.023-22.613 3.623-28.442a50.557 50.557 0 007.535 1.829 8.565 8.565 0 00-.741 3.455 8.653 8.653 0 1017.306 0 8.406 8.406 0 00-.522-2.581 100.993 100.993 0 0029.63-6.2c3.949 6.067 8.25 10.241 12.734 14.551 1.484 1.426 3 2.887 4.543 4.451 2.016 2.05 4.618 4.183 7.632 6.665 9.066 7.448 20.348 16.712 24.341 30.523 4.916 17.002-6.947 29.236-18.599 34.551zm22.682-28.406a31.894 31.894 0 00-1.221-6.979 43.051 43.051 0 00-5.1-11.052c17.792-4.814 27.681-21.064 32.081-30.855-.568 12.773-4.547 37.757-25.76 48.889z" fill="#3e4147"/></svg>
