<svg xmlns="http://www.w3.org/2000/svg" data-name="Layer 1" viewBox="0 0 1920 1080"><path d="M1132.577 516.082h-102.743a7.843 7.843 0 00-6.028 3.398l-61.571 101.733c-1.131 1.868-2.975 1.864-4.097-.01L897.222 519.49a7.794 7.794 0 00-6.012-3.408H787.99c-2.185 0-2.977 1.485-1.761 3.3l121.71 181.642a15.388 15.388 0 012.211 7.271v109.037a3.983 3.983 0 003.972 3.972h92.291a3.983 3.983 0 003.972-3.972V708.295a15.383 15.383 0 012.211-7.27l121.741-181.643c1.217-1.815.424-3.3-1.76-3.3zM953.216 358.936c2.683 1.485 5.277 2.7 6.652 2.7s3.672-.828 6.629-2.7c58.185-37.268 9.772-83.009-6.629-100.24-16.413 17.231-64.826 62.972-6.652 100.24zM892.016 494.904c3.31-.272 6.377-.74 7.613-1.567 1.241-.826 2.813-2.954 4.35-6.416 30.017-68.562-41.103-80.665-66.24-86.329-4.425 25.393-20.545 95.714 54.277 94.312zM796.684 479.911c2.799-1.788 5.291-3.634 5.997-4.944.711-1.31 1.107-3.926.848-7.706-5.512-74.642-74.041-52.097-98.91-45.354 7.956 24.515 26.576 94.218 92.065 58.004zM808.575 605.077c1.189-3.102 2.095-6.068 1.885-7.541-.206-1.477-1.445-3.814-3.899-6.702-48.805-56.744-90.508 2.122-106.498 22.33 20.971 14.982 77.38 59.964 108.512-8.087zM959.867 377.845c-12.843 14.485-50.73 52.934-5.205 84.261 2.098 1.249 4.128 2.269 5.205 2.269s2.873-.696 5.187-2.269c45.534-31.327 7.647-69.776-5.187-84.261z" fill="#85c3e9"/><path d="M834.543 636.953a8.985 8.985 0 00-4.585-.903c-45.599-.19-38.01 43.693-36.128 59.547 15.52-3.775 59.288-12.006 43.174-54.658-.837-1.832-1.731-3.479-2.46-3.986zM954.662 561.838c2.098 1.248 4.128 2.269 5.205 2.269s2.873-.696 5.187-2.27c45.534-31.326 7.647-69.776-5.187-84.26-12.843 14.484-50.73 52.934-5.205 84.26zM762.568 538.494c1.431-1.977 2.63-3.908 2.725-4.981.097-1.072-.435-2.924-1.794-5.37-27.121-48.157-68.81-13.867-84.388-2.382 13.276 14.09 48.178 55.268 83.457 12.733zM809.499 405.887c2.435-.172 4.685-.493 5.57-1.107.883-.615 1.962-2.21 2.965-4.822 19.522-51.708-33.53-61.67-52.335-66.243-2.283 19.223-11.462 72.417 43.8 72.172zM884.198 389.242c2.693.471 5.227.731 6.355.302 1.127-.43 2.73-1.875 4.527-4.445 35.197-50.954-19.803-76.118-39.017-86.17-7.677 20.286-32.028 75.654 28.135 90.313zM1020.37 493.337c1.237.828 4.305 1.295 7.614 1.567 74.823 1.402 58.702-68.919 54.277-94.312-25.137 5.664-96.257 17.767-66.24 86.329 1.537 3.462 3.109 5.59 4.35 6.416zM1116.47 467.26c-.258 3.78.138 6.398.849 7.707.706 1.31 3.198 3.156 5.997 4.944 65.49 36.214 84.109-33.489 92.065-58.004-24.869-6.743-93.398-29.288-98.91 45.354zM1113.439 590.834c-2.454 2.888-3.692 5.225-3.9 6.702-.209 1.473.698 4.44 1.886 7.54 31.133 68.052 87.541 23.07 108.512 8.087-15.99-20.207-57.693-79.073-106.498-22.33zM1090.042 636.05a8.986 8.986 0 00-4.585.903c-.73.507-1.624 2.154-2.46 3.986-16.115 42.652 27.653 50.883 43.173 54.658 1.882-15.854 9.47-59.736-36.128-59.547zM1156.501 528.143c-1.359 2.446-1.891 4.298-1.794 5.37.095 1.073 1.294 3.004 2.725 4.98 35.28 42.536 70.18 1.357 83.457-12.732-15.578-11.485-57.267-45.775-84.388 2.382zM1104.932 404.78c.884.614 3.134.935 5.57 1.107 55.261.245 46.082-52.949 43.799-72.172-18.805 4.574-71.857 14.535-52.335 66.243 1.003 2.611 2.082 4.207 2.966 4.822zM1029.447 389.544c1.128.429 3.662.17 6.355-.302 60.163-14.66 35.812-70.027 28.135-90.313-19.214 10.052-74.214 35.216-39.017 86.17 1.797 2.57 3.4 4.014 4.527 4.445z" fill="#85c3e9"/></svg>
